<svg version="1" xmlns="http://www.w3.org/2000/svg" width="492" height="492" viewBox="0 0 369.000000 369.000000"><path d="M174.4 1.9c-7.9 3.6-8.6 8-2.5 14.6 5.6 5.9 6.3 8.5 7.6 28.8.5 8.2-.1 10.7-3.5 14.6-1.6 1.8-3.4 2.5-8.5 3-7.4.8-7.9.1-4.5-5.4 2.9-4.7 4.9-11 4.3-13.5-1.8-6.8-18.3-7.3-27.9-.8-3.1 2.1-6.4 7.1-6.4 9.7 0 1.7 4.6 5.8 10.3 9.4 2.6 1.6 4.5 3.2 4.2 3.5-.3.4-4.5 1.8-9.3 3.3-8.3 2.5-8.8 2.6-11.6 1-3.8-2.2-6.9-6.4-11.2-15.2-3.5-7.2-3.6-7.6-3.5-19 .1-13.7-.6-15.2-6.7-15.1-10.5.2-26 12.4-23.6 18.5.3.8 4.2 3.3 8.7 5.5 10.4 5.3 11.3 6.1 17.5 15.5 8.9 13.4 9.1 18.7.8 24.3l-5.1 3.4-.8-2.9c-2.6-10.1-16.4-7.9-24.4 3.7-5.9 8.7-5.3 17 1.3 19.4 2.8 1 3.1 1.4 2.3 3-.6 1.1-2.1 2.4-3.4 3-3.3 1.5-6.6 0-19.3-8.5-9.5-6.3-10.6-7.4-12.5-12.1-3.8-9-6.2-13.1-7.7-13.2-4.2-.1-11.3 6.1-14.9 13.2-2.9 5.5-3.7 13.3-1.8 15.8 1.3 1.8 1.9 1.9 8.3.8 3.8-.7 8.1-1.4 9.5-1.6 3.4-.5 23.8 9.3 27.3 13.1 3.3 3.5 3.4 8.1.2 15.7l-2.3 5.8L63 140c-7.3-10.3-18.9-1.6-19.2 14.5-.2 7.8 2.3 13.2 6.9 15.1 2.9 1.3 3.7 1.2 6.3-.1l3-1.6v3.1c0 7.7-4 9.5-19 8.6l-10.8-.6-10-6c-12.5-7.6-14.3-7.7-17.7-1-2.6 4.9-2.7 18.1-.2 23.2 3.3 7 5.1 6.9 18.5-1.2l9.3-5.6 9.7-.2c14.6-.4 19.3 2.9 22.1 15.2 1.4 6.3 1 7.7-1.6 5.4-1-.8-3.6-2.2-5.8-3-3.5-1.4-4.4-1.4-6.7-.2-7.5 3.9-5.9 19.4 2.9 28.1 3.8 3.9 4.8 4.4 8.1 4.1 3.1-.3 4-.8 5.5-4 1-2 2-5 2.1-6.5.2-1.5.4-3.2.5-3.7.2-1.8 1.2.2 3.6 6.9 3.6 10.4 1.5 14-13 21.3l-8 4.1H37.8c-13.9 0-15.4.3-16.6 3.9-2.5 7.6 7.2 24.8 15.3 26.8 3.5.9 4.8-.4 11.5-11.9 5.3-9 6.4-10.2 13-14.4 7.5-4.8 11.8-6.2 18.9-6.3 4 0 4.8.4 8.8 4.7 2.3 2.6 4.3 5.1 4.3 5.5 0 .5-2.6.8-5.9.8-8.3 0-11.9 1.5-12.9 5.3-2.5 9.4 9.6 22.7 20.8 22.9 6.5.1 8.4-2.5 8.2-10.7-.1-3.7-.4-7.1-.7-7.6-.4-.5 1.7.8 4.6 2.8 9.7 7.1 10.1 7.6 10.2 11.9.1 3.3-1.1 5.6-7.5 14.9-6.5 9.4-8.3 11.4-12.5 13.3-8.5 4.2-16.2 9.2-16.6 11-1.5 6.6 13.6 18.2 23.8 18.2 6.1 0 6.7-1.3 7.2-15 .3-12 .4-12.4 4.3-19.9 4.3-8.2 8.2-13.2 11.7-15 3.1-1.6 9.4-1.4 13.9.5l3.8 1.6-3.6 1.2c-5.9 2.1-10.8 5.6-11.4 8.3-1.6 6.1 7.6 14.4 17.4 15.9 5.1.8 12.4-1.1 14.8-3.7 3-3.3 2.1-6.7-4.2-16.4-1.8-2.7-1.8-2.8.3-2.1 1.2.4 3.2.9 4.5 1.1 5.2 1 12 4 14.1 6.3 1.9 2 2.2 3.4 2.1 9.5-.1 20.7.1 19.5-5.9 28.6-6.2 9.4-7.3 12.4-5.4 14.7 5.6 6.8 27 6.7 31.5-.1 1.8-2.7 1.2-4.2-6.2-15.8l-4.4-6.8-.1-11.4c-.1-9.9.1-12 2.1-16 2.7-5.6 6.4-7.5 14.2-7.5 4.6.1 5.1.2 3.6 1.4-2.5 1.8-4.6 7.7-3.9 10.5 2.3 8.9 19.2 8.2 28.8-1.1 5.9-5.7 5.4-13.6-.9-16.2l-3.2-1.4 4.2-1.3c5.8-1.7 9-.4 11.6 4.6 1.2 2.2 4 7.2 6.2 11l4.2 7 .3 12.8c.3 11 .7 13.1 2.2 14.2 6.1 4.5 26.1-6.1 28.3-15 .9-3.5-.5-4.7-11.7-11.1-10.6-5.9-12.9-8.2-18.3-18.7-5.5-10.5-4-15.1 7.6-23.5l5.7-4.1 2.1 2.6c1.1 1.4 2 4.2 2.1 6.2.5 17.2 3.1 21.3 12.7 19.7 11.1-1.8 21.8-17.5 16.9-25-1.9-2.8-9.5-5-19.4-5.5-1.2 0-3.4-1.2-4.9-2.4l-2.7-2.4 2.8-3.9c4.6-6.2 9.5-10.4 12.2-10.4 3.3 0 8.7 2.4 16 7.1 5.1 3.3 6.9 5.3 9.8 10.7 5.2 9.3 9.7 16.1 11.3 16.7 6.1 2.3 18.2-13.3 18.2-23.5 0-2.9-.6-5.2-1.4-5.9-.9-.7-6.6-1.4-14.2-1.8-11.8-.5-13.3-.8-20.3-3.9-8.4-3.9-13.5-7.4-15.2-10.6-.9-1.7-.7-3 1.1-6.9l2.3-4.8 2.1 3.2c6.2 9.3 20.8-1 22.3-15.7 1.1-10.4-4.1-16.1-11.7-13-1.9.8-4.2 2.2-5.1 3-1.6 1.4-1.7 1.2-1.2-4.2 1.2-12.2 4.8-15.5 17.2-15.6 6.9-.1 6.8-.1 25 8.4 10 4.7 13.5 5.5 15.7 3.8 2.6-2.2 4.5-8.2 4.6-14.5.1-7.8-1.6-13.5-4.7-16.5l-2.5-2.4-5.8 2.4c-3.1 1.3-9.2 4-13.4 6.1-7.6 3.8-14.6 5.2-27.2 5.2-4.7 0-7.6-2.9-7.6-7.6v-3.2l2.3 3.2c1.2 1.8 3.1 3.6 4.2 4.1 7.1 3.3 13.2-10.6 9.9-23-3.7-14.1-14.7-15.2-18.2-1.7-.4 1.9-1.2 3.4-1.7 3.4-1.5 0-7.5-18.8-7.5-23.7 0-7.8 1.1-9.3 9.7-13.4 4.3-2 10.1-4.7 13-6.1 4.6-2.2 5.9-2.4 12-1.7 14.2 1.5 15.9 1.1 16.8-3.5 1.2-6.5-5.2-19.4-11.9-24-5.6-3.7-7.6-2.5-10.9 6.1-3.6 9.3-3.9 9.7-11.7 14.6l-6.5 4.1-1.2-4.3c-2.7-9.1-11.8-18.9-18.8-20.1-5-.9-5.9.5-6.3 9.4-.3 6.6-.8 8.3-2.6 10l-2.1 2-9.6-9.2c-7.1-6.8-10-10.4-11.3-13.9-2.4-6.1-1.6-8.3 7.7-22.1l7.2-10.9 7.9-3.4c9.6-4 11.1-5.3 10.2-8.8-2.2-9-21.7-19-28.5-14.7-1.6 1-1.9 5.8-.8 15.3.7 6.7.7 7-3.8 16-5.2 10.9-9.1 15.9-13.9 18.2-4 1.9-7.3 2-11.3.5l-2.8-1 5.9-3.2c3.2-1.7 7.1-4.3 8.7-5.8 2.5-2.4 2.8-3.1 1.9-5.3-1.3-3.5-5.3-7-11.7-10-6.7-3.3-10.2-3.9-15.4-2.7-6.6 1.5-6.8 3-2.4 16.3 1.3 3.8 2.2 6.8 2.1 6.8 0 0-1.7-.5-3.6-1-3.3-1-4.6-1.2-12.1-2.5-1.8-.3-3.9-1-4.9-1.5-4.3-2.3-6.9-10.5-6.3-19.6.7-11.9 2.2-17.7 5.3-21.9 6.5-8.6 8.2-12.2 7-14.5-2.7-5.1-18.9-7.5-26.6-4.1zm18.4.6c8.4 1.2 4.1 3.6-7.2 4-11.9.3-16.3-2.6-6.5-4.3 4.5-.8 6.3-.8 13.7.3zM105 22.9C105 25.5 90.3 34 86 34c-2.3-.1-2.2-.4 2.2-4.3 6.1-5.4 16.8-9.7 16.8-6.8zm168.7 2.7c5.6 2.9 11.6 8.1 10.8 9.5-.3.4-2 .3-3.8-.3-4.1-1.4-15.5-8.8-16.1-10.5-.9-2.2 3.4-1.5 9.1 1.3zM161.2 41.8c2.1 2.1-.1 6-4.6 8.1-5.7 2.8-8.2 3.3-13.3 2.6-8.8-1.2-4.4-10.3 6.1-12.5 3.6-.7 10.3.3 11.8 1.8zm69.9 6.7c8.6 3.9 11.1 6.5 6.4 6.5-5.8 0-21.6-7.5-19.7-9.4 1.1-1.2 7.4.1 13.3 2.9zM95 83c1.7 1.7 1.8 2.4.8 5.2-2.1 6.3-7.1 11.5-12.5 13.2-3.1 1-6.3-2.4-5.7-6 1.3-7.3 7.4-13.2 14.7-14.3.4 0 1.6.8 2.7 1.9zm243.5 5.4c4.1 5.1 7.7 13.6 6.6 15.5-1.1 1.7-6.2-4.8-9.6-12-4.2-9.1-2.9-10.6 3-3.5zM36 86.6c0 2.3-4.7 11.4-8 15.4-4.4 5.4-5.6 2.9-2.1-4.5 4.2-9 10.1-15.3 10.1-10.9zm256.6 3.2c5.8 5.3 11.3 15.2 8.5 15.2-2.5 0-15.1-15.1-15.1-18.1 0-1.9 2.6-.7 6.6 2.9zm-57.6 10c7.6 3.8 10.7 15 5.8 20.6-8.3 9.3-26.6-4.7-22.4-17.2 1.6-4.9 10.2-6.7 16.6-3.4zm-110.2 12.8c5.6 3.7 4.9 11.5-1.8 18.6-1.9 2.1-8.1 4.8-10.9 4.8-8.4 0-12.3-10.1-7.1-18.5 4.2-6.7 13.5-9 19.8-4.9zm171.2-.8l3.5.8-4.3 2.3c-2.8 1.4-5.7 2.1-8 1.9-3.3-.3-3.7-.6-3.4-2.8.4-4 2.5-4.4 12.2-2.2zm-110.1 15.6c7 3.6 8.1 11 2.1 14.1-6.2 3.2-14.9 1-16.8-4.2-2.6-7.5 6.9-13.9 14.7-9.9zM57.6 143.2c1.2 2.2 1.5 4.7 1.1 9-1.1 12.8-9.6 16.6-12.5 5.6-3-11.3 6.7-23.7 11.4-14.6zm263.7 8.8c2.6 5 2 15.2-1.1 18.3-2.6 2.6-4.9 1.7-7.1-2.9-1.7-3.4-1.9-12.7-.2-16.7 1.6-4.1 6-3.5 8.4 1.3zm-193.8 10.7c2.2 2.1 3.5 5.6 3 7.9-.2 1.1-.4 2.8-.4 4-.1 3.2-4.5 7.4-7.9 7.4-5.8 0-10.1-8.4-7.6-14.7 2.4-5.8 9.3-8.3 12.9-4.6zm108.8 12.6c2.5 4.9 1.7 9.7-2.4 13.1-6.5 5.5-13 1.4-12.9-8.1.1-11 10.4-14.4 15.3-5zM8.9 182.9c.1 4.3-.3 9.1-.9 10.7-1.1 2.8-1.2 2.8-2.3.9-1.3-2.3-1.6-18-.4-21 1.6-3.9 3.4.9 3.6 9.4zm357.2-4.5c.4 7.7 0 13.6-1.1 15.7-1.1 2-1.3 2.1-2.2.5-1.3-2.4-1.6-13.2-.5-18.6.8-4.1 1-4.3 2.3-2.5.8 1 1.5 3.3 1.5 4.9zm-82.8 17c3 2.8 5.1 9.7 4.3 13.9-1.3 6.5-7.5 11.7-13.8 11.7-5.8-.1-8.8-4-8.8-11.5 0-11.9 11.2-20.6 18.3-14.1zM54.2 212c3.6 2.8 7.2 12.1 6.4 16.5-1.1 5.6-4.7 6.4-9.4 2.1-5.4-4.8-7.3-14.6-3.7-18.6 2.3-2.5 3.6-2.5 6.7 0zm266.8.1c2.1 3.9 1.4 9.8-1.7 14.2-7.6 10.9-15.5 7.2-11.3-5.2 3.1-9.1 10.3-14.1 13-9zm-217.7 8.2c3.3 1.5 10.6 8.8 10.8 11 .1.6.3 2.6.5 4.3 1.1 9.4-13.4 12.6-20.8 4.7-2.8-3.1-4.8-8.2-4.3-11 .2-1 .4-2.5.4-3.4.2-2.7 4.8-6.9 7.6-6.9 1.4 0 4 .6 5.8 1.3zm130.4 8.1c5.5 1.8 3 11.6-3.6 14.7-6 2.8-13.1 0-13.1-5.2 0-3.7 3.6-7.7 8.4-9.3 4.2-1.4 4.7-1.4 8.3-.2zm-51.4 6.7c6.5 2.7 6.4 9.1-.1 13.5-4.5 3.1-10.7 1.6-14.9-3.6-2.8-3.5-.3-9.6 4.7-11.2 2.1-.7 6.9-.1 10.3 1.3zM29 269.1c4 6.3 6.6 12.6 5.6 13.6-1.9 1.9-10.8-11.2-12.1-17.5-.8-4.2 2.5-2.3 6.5 3.9zm316.5-4c1.5 2.4-8.6 18.9-11.6 18.9-2.8 0 7.3-19.7 10.3-19.9.4-.1 1 .4 1.3 1zM87 273c4.8 2.5 7.8 5.5 9.6 9.8 4.6 10.7-11.9 9-17.4-1.8-2.2-4.4-2.1-7.7.2-9.2 1.8-1.2 3.4-.9 7.6 1.2zm90.5 4c3.7 2.3 6.5 6.5 6.5 9.9 0 1.1-1.6 3.3-3.5 4.8-6.7 5.4-15.2 4.6-21-1.8-3.3-3.7-3.7-4.7-3.7-8.4 0-3.1.3-3.6 3.5-5.6 4.2-2.6 13-2.1 18.2 1.1zm124.3 7.4c.7 5.7-3.9 11.9-10.5 14.6-7.1 2.7-10.9-1.2-7.5-7.8 2.8-5.6 9.6-10.4 14.1-10 3.1.3 3.6.7 3.9 3.2zm-68.1 23.3c.8 1.1.9 2.3.2 4.1-1.5 3.9-2.9 5.3-7.4 7.3-5.1 2.4-10.7 2.4-13.5.1-2.2-1.8-2.2-1.9-.6-5 3.7-7.2 17.4-11.3 21.3-6.5zm-80.7 3.7c5.5 2.7 7.5 6.8 4.4 9.1-5.1 3.8-14.1 2.7-19.5-2.6-8-7.8 3-12.6 15.1-6.5zM91.8 334c5.8 2.6 13.3 8.1 12.9 9.4-.9 2.6-10.1-1.1-16.2-6.5-5.7-5.1-4.3-6.4 3.3-2.9zm191.2-1c0 1.4-5.3 5.9-9.8 8.5-4.9 2.8-10.2 3.9-10.2 2.2.1-1.7 8.5-7.7 13.9-9.8 5.4-2.1 6.1-2.2 6.1-.9zm-86.9 28.6c2.4 1.4-4.1 3.5-11 3.5-6.1 0-12.1-1.3-12.1-2.5 0-2 20.1-2.9 23.1-1z"/></svg>