<?xml version="1.0" standalone="no"?>
<!DOCTYPE svg PUBLIC "-//W3C//DTD SVG 20010904//EN"
 "http://www.w3.org/TR/2001/REC-SVG-20010904/DTD/svg10.dtd">
<svg version="1.0" xmlns="http://www.w3.org/2000/svg"
 width="369.000000pt" height="369.000000pt" viewBox="0 0 369.000000 369.000000"
 preserveAspectRatio="xMidYMid meet">
<metadata>
Created by potrace 1.11, written by Peter Selinger 2001-2013
</metadata>
<g transform="translate(0.000000,369.000000) scale(0.100000,-0.100000)"
fill="#000000" stroke="none">
<path d="M1744 3671 c-79 -36 -86 -80 -25 -146 56 -59 63 -85 76 -288 5 -82
-1 -107 -35 -146 -16 -18 -34 -25 -85 -30 -74 -8 -79 -1 -45 54 29 47 49 110
43 135 -18 68 -183 73 -279 8 -31 -21 -64 -71 -64 -97 0 -17 46 -58 103 -94
26 -16 45 -32 42 -35 -3 -4 -45 -18 -93 -33 -83 -25 -88 -26 -116 -10 -38 22
-69 64 -112 152 -35 72 -36 76 -35 190 1 137 -6 152 -67 151 -105 -2 -260
-124 -236 -185 3 -8 42 -33 87 -55 104 -53 113 -61 175 -155 89 -134 91 -187
8 -243 l-51 -34 -8 29 c-26 101 -164 79 -244 -37 -59 -87 -53 -170 13 -194 28
-10 31 -14 23 -30 -6 -11 -21 -24 -34 -30 -33 -15 -66 0 -193 85 -95 63 -106
74 -125 121 -38 90 -62 131 -77 132 -42 1 -113 -61 -149 -132 -29 -55 -37
-133 -18 -158 13 -18 19 -19 83 -8 38 7 81 14 95 16 34 5 238 -93 273 -131 33
-35 34 -81 2 -157 l-23 -58 -23 32 c-73 103 -189 16 -192 -145 -2 -78 23 -132
69 -151 29 -13 37 -12 63 1 l30 16 0 -31 c0 -77 -40 -95 -190 -86 l-108 6
-100 60 c-125 76 -143 77 -177 10 -26 -49 -27 -181 -2 -232 33 -70 51 -69 185
12 l93 56 97 2 c146 4 193 -29 221 -152 14 -63 10 -77 -16 -54 -10 8 -36 22
-58 30 -35 14 -44 14 -67 2 -75 -39 -59 -194 29 -281 38 -39 48 -44 81 -41 31
3 40 8 55 40 10 20 20 50 21 65 2 15 4 32 5 37 2 18 12 -2 36 -69 36 -104 15
-140 -130 -213 l-80 -41 -117 0 c-139 0 -154 -3 -166 -39 -25 -76 72 -248 153
-268 35 -9 48 4 115 119 53 90 64 102 130 144 75 48 118 62 189 63 40 0 48 -4
88 -47 23 -26 43 -51 43 -55 0 -5 -26 -8 -59 -8 -83 0 -119 -15 -129 -53 -25
-94 96 -227 208 -229 65 -1 84 25 82 107 -1 37 -4 71 -7 76 -4 5 17 -8 46 -28
97 -71 101 -76 102 -119 1 -33 -11 -56 -75 -149 -65 -94 -83 -114 -125 -133
-85 -42 -162 -92 -166 -110 -15 -66 136 -182 238 -182 61 0 67 13 72 150 3
120 4 124 43 199 43 82 82 132 117 150 31 16 94 14 139 -5 l38 -16 -36 -12
c-59 -21 -108 -56 -114 -83 -16 -61 76 -144 174 -159 51 -8 124 11 148 37 30
33 21 67 -42 164 -18 27 -18 28 3 21 12 -4 32 -9 45 -11 52 -10 120 -40 141
-63 19 -20 22 -34 21 -95 -1 -207 1 -195 -59 -286 -62 -94 -73 -124 -54 -147
56 -68 270 -67 315 1 18 27 12 42 -62 158 l-44 68 -1 114 c-1 99 1 120 21 160
27 56 64 75 142 75 46 -1 51 -2 36 -14 -25 -18 -46 -77 -39 -105 23 -89 192
-82 288 11 59 57 54 136 -9 162 l-32 14 42 13 c58 17 90 4 116 -46 12 -22 40
-72 62 -110 l42 -70 3 -128 c3 -110 7 -131 22 -142 61 -45 261 61 283 150 9
35 -5 47 -117 111 -106 59 -129 82 -183 187 -55 105 -40 151 76 235 l57 41 21
-26 c11 -14 20 -42 21 -62 5 -172 31 -213 127 -197 111 18 218 175 169 250
-19 28 -95 50 -194 55 -12 0 -34 12 -49 24 l-27 24 28 39 c46 62 95 104 122
104 33 0 87 -24 160 -71 51 -33 69 -53 98 -107 52 -93 97 -161 113 -167 61
-23 182 133 182 235 0 29 -6 52 -14 59 -9 7 -66 14 -142 18 -118 5 -133 8
-203 39 -84 39 -135 74 -152 106 -9 17 -7 30 11 69 l23 48 21 -32 c62 -93 208
10 223 157 11 104 -41 161 -117 130 -19 -8 -42 -22 -51 -30 -16 -14 -17 -12
-12 42 12 122 48 155 172 156 69 1 68 1 250 -84 100 -47 135 -55 157 -38 26
22 45 82 46 145 1 78 -16 135 -47 165 l-25 24 -58 -24 c-31 -13 -92 -40 -134
-61 -76 -38 -146 -52 -272 -52 -47 0 -76 29 -76 76 l0 32 23 -32 c12 -18 31
-36 42 -41 71 -33 132 106 99 230 -37 141 -147 152 -182 17 -4 -19 -12 -34
-17 -34 -15 0 -75 188 -75 237 0 78 11 93 97 134 43 20 101 47 130 61 46 22
59 24 120 17 142 -15 159 -11 168 35 12 65 -52 194 -119 240 -56 37 -76 25
-109 -61 -36 -93 -39 -97 -117 -146 l-65 -41 -12 43 c-27 91 -118 189 -188
201 -50 9 -59 -5 -63 -94 -3 -66 -8 -83 -26 -100 l-21 -20 -96 92 c-71 68
-100 104 -113 139 -24 61 -16 83 77 221 l72 109 79 34 c96 40 111 53 102 88
-22 90 -217 190 -285 147 -16 -10 -19 -58 -8 -153 7 -67 7 -70 -38 -160 -52
-109 -91 -159 -139 -182 -40 -19 -73 -20 -113 -5 l-28 10 59 32 c32 17 71 43
87 58 25 24 28 31 19 53 -13 35 -53 70 -117 100 -67 33 -102 39 -154 27 -66
-15 -68 -30 -24 -163 13 -38 22 -68 21 -68 0 0 -17 5 -36 10 -33 10 -46 12
-121 25 -18 3 -39 10 -49 15 -43 23 -69 105 -63 196 7 119 22 177 53 219 65
86 82 122 70 145 -27 51 -189 75 -266 41z m184 -6 c84 -12 41 -36 -72 -40
-119 -3 -163 26 -65 43 45 8 63 8 137 -3z m-878 -204 c0 -26 -147 -111 -190
-111 -23 1 -22 4 22 43 61 54 168 97 168 68z m1687 -27 c56 -29 116 -81 108
-95 -3 -4 -20 -3 -38 3 -41 14 -155 88 -161 105 -9 22 34 15 91 -13z m-1125
-162 c21 -21 -1 -60 -46 -81 -57 -28 -82 -33 -133 -26 -88 12 -44 103 61 125
36 7 103 -3 118 -18z m699 -67 c86 -39 111 -65 64 -65 -58 0 -216 75 -197 94
11 12 74 -1 133 -29z m-1361 -345 c17 -17 18 -24 8 -52 -21 -63 -71 -115 -125
-132 -31 -10 -63 24 -57 60 13 73 74 132 147 143 4 0 16 -8 27 -19z m2435 -54
c41 -51 77 -136 66 -155 -11 -17 -62 48 -96 120 -42 91 -29 106 30 35z m-3025
18 c0 -23 -47 -114 -80 -154 -44 -54 -56 -29 -21 45 42 90 101 153 101 109z
m2566 -32 c58 -53 113 -152 85 -152 -25 0 -151 151 -151 181 0 19 26 7 66 -29z
m-576 -100 c76 -38 107 -150 58 -206 -83 -93 -266 47 -224 172 16 49 102 67
166 34z m-1102 -128 c56 -37 49 -115 -18 -186 -19 -21 -81 -48 -109 -48 -84 0
-123 101 -71 185 42 67 135 90 198 49z m1712 8 l35 -8 -43 -23 c-28 -14 -57
-21 -80 -19 -33 3 -37 6 -34 28 4 40 25 44 122 22z m-1101 -156 c70 -36 81
-110 21 -141 -62 -32 -149 -10 -168 42 -26 75 69 139 147 99z m-1283 -158 c12
-22 15 -47 11 -90 -11 -128 -96 -166 -125 -56 -30 113 67 237 114 146z m2637
-88 c26 -50 20 -152 -11 -183 -26 -26 -49 -17 -71 29 -17 34 -19 127 -2 167
16 41 60 35 84 -13z m-1938 -107 c22 -21 35 -56 30 -79 -2 -11 -4 -28 -4 -40
-1 -32 -45 -74 -79 -74 -58 0 -101 84 -76 147 24 58 93 83 129 46z m1088 -126
c25 -49 17 -97 -24 -131 -65 -55 -130 -14 -129 81 1 110 104 144 153 50z
m-2274 -76 c1 -43 -3 -91 -9 -107 -11 -28 -12 -28 -23 -9 -13 23 -16 180 -4
210 16 39 34 -9 36 -94z m3572 45 c4 -77 0 -136 -11 -157 -11 -20 -13 -21 -22
-5 -13 24 -16 132 -5 186 8 41 10 43 23 25 8 -10 15 -33 15 -49z m-828 -170
c30 -28 51 -97 43 -139 -13 -65 -75 -117 -138 -117 -58 1 -88 40 -88 115 0
119 112 206 183 141z m-2291 -166 c36 -28 72 -121 64 -165 -11 -56 -47 -64
-94 -21 -54 48 -73 146 -37 186 23 25 36 25 67 0z m2668 -1 c21 -39 14 -98
-17 -142 -76 -109 -155 -72 -113 52 31 91 103 141 130 90z m-2177 -82 c33 -15
106 -88 108 -110 1 -6 3 -26 5 -43 11 -94 -134 -126 -208 -47 -28 31 -48 82
-43 110 2 10 4 25 4 34 2 27 48 69 76 69 14 0 40 -6 58 -13z m1304 -81 c55
-18 30 -116 -36 -147 -60 -28 -131 0 -131 52 0 37 36 77 84 93 42 14 47 14 83
2z m-514 -67 c65 -27 64 -91 -1 -135 -45 -31 -107 -16 -149 36 -28 35 -3 96
47 112 21 7 69 1 103 -13z m-1533 -340 c40 -63 66 -126 56 -136 -19 -19 -108
112 -121 175 -8 42 25 23 65 -39z m3165 40 c15 -24 -86 -189 -116 -189 -28 0
73 197 103 199 4 1 10 -4 13 -10z m-2585 -79 c48 -25 78 -55 96 -98 46 -107
-119 -90 -174 18 -22 44 -21 77 2 92 18 12 34 9 76 -12z m905 -40 c37 -23 65
-65 65 -99 0 -11 -16 -33 -35 -48 -67 -54 -152 -46 -210 18 -33 37 -37 47 -37
84 0 31 3 36 35 56 42 26 130 21 182 -11z m1243 -74 c7 -57 -39 -119 -105
-146 -71 -27 -109 12 -75 78 28 56 96 104 141 100 31 -3 36 -7 39 -32z m-681
-233 c8 -11 9 -23 2 -41 -15 -39 -29 -53 -74 -73 -51 -24 -107 -24 -135 -1
-22 18 -22 19 -6 50 37 72 174 113 213 65z m-807 -37 c55 -27 75 -68 44 -91
-51 -38 -141 -27 -195 26 -80 78 30 126 151 65z m-612 -226 c58 -26 133 -81
129 -94 -9 -26 -101 11 -162 65 -57 51 -43 64 33 29z m1912 10 c0 -14 -53 -59
-98 -85 -49 -28 -102 -39 -102 -22 1 17 85 77 139 98 54 21 61 22 61 9z m-869
-286 c24 -14 -41 -35 -110 -35 -61 0 -121 13 -121 25 0 20 201 29 231 10z"/>
</g>
</svg>
