<svg xmlns="http://www.w3.org/2000/svg" class="fill-current text-white" viewBox="444.8461304 345.3241272 909.7538452 367.9257507">
  <path fill="#fff" d="M811.3 518.6c-1.4-3.7-3.6-6.1-6-6.1-3.4 0-27.1 12-27.1 12-3.1.1-6.1.3-9.2.4-3.4.2-12 2.2-14.6-.4-3.8-3.8-1.7-7.6-4.1-11.6 0 0 5.9 10.2 9.9 10 5.5-.3 9.5-8.4 9-18.2-.5-9.8-5.4-17.4-10.9-17.1-4.3.2-7.7 5.2-8.7 12.1-.1.5-1.7 2.4-1.7 2.4-3-11.3-10.5-21.2-5.8-33 1.6-3.9 12.9-7.2 16.7-9.1 3.4-1.7 6.9-3.4 10.3-5.1 0 0 18.2 3 21.1 1.4 2.1-1.2 2.8-4.4 2.1-8.4-1.2-7.1-5.3-14.3-10.9-18.8-3.1-2.5-6.1-3.5-8.2-2.3-2.9 1.7-5 15.9-9.7 18.8-4.9 3.1-9.8 6.1-14.7 9.2-4.2 2.6-8.2 5.8-13 7.3-3 .9-9.7.8-7.4-4.1 2.8-5.9 11.4.8 15.2-.8 1.1-.5 2.3-1 3.3-1.5 1.4-.7 2.8-1.6 4-2.7.4-2.2-2-7.5-2.6-8.6-2.6-5.2-7.4-11.8-13-14.2-3.6-2-6.9-2.5-8.8-.9-2.7 2.2-1.6 16.5-1.6 16.5l-4.9 4.5c.6-.6-14.1-13.4-15.3-14.6-3.7-3.9-7.3-9.6-6.6-15.2.5-4 3.7-7.5 5.8-10.9 3.3-5.2 6.7-10.3 10-15.5 0 0 16.6-5.7 18.3-8.6 1.2-2.1.2-5.2-2.4-8.4-4.5-5.6-11.7-9.7-18.8-10.8-3.9-.6-7.1.1-8.3 2.1-1.7 2.9 1.3 20.6 1.3 20.6-6.6 12.6-13.1 35.3-31.3 27.8-.5-.2-1.1-.4-1.6-.6 0 0 15.7-7.7 17-10.9 1.6-4.1-3.2-8.1-6-10.1-4.9-3.5-12.4-7.1-18.6-6.5-4.1 0-7.3 1.1-8.2 3.4-1.3 3.2 5.4 20.4 5.4 20.4l-.9-.3c-5.6-1.7-11.4-3.1-17.2-3.7-4.3-.4-7.3-5.6-8.2-9.5-.6-2.3-1.3-3.7-1.2-6.1.1-2.6.2-5.2.4-7.7.4-5 .9-9.9 2-14.8.7-2.9 10.9-12.9 10.9-17 .1-4-5.4-5.8-8.5-6.7-5.7-1.7-14-2.2-19.5.7-2.1 1.1-4.4 1.9-5.6 4.1-1.2 2.3-.2 5.3 1.1 7.3 1.3 2.1 3.7 3.7 5.3 5.7 1.4 1.8 2.3 3.8 2.8 6 1.2 4.6 1.5 9.5 1.8 14.3.2 2.6.3 5.2.4 7.8.1 2.4.5 5.5-.2 7.8-.4 1.4-1.4 2.6-2.3 3.7-.9 1-1.9 2.3-3 3.1-1.3.9-2.4.9-4 1-3.3.3-6.7.5-10 .4-.1-.6 8.7-14.4 7.5-18.7-1.5-5.5-10.3-7.8-19.7-5.3-9.4 2.5-15.9 9-14.4 14.5 1.1 4.3 15.7 11.9 15.7 11.9-4.6 1.2-9.2 2.6-13.7 4.3-3 1.1-5 2.2-8.2.5-1.5-.8-2.8-2-4.1-3.1-5.1-4.7-7.6-12.6-10.7-18.7-1.9-3.7.7-22.7-1-25.6-2.6-4.5-10.6-1.9-14.2-.5-4 1.6-7.7 3.9-10.9 6.9-2.4 2.3-6.6 6.8-4.5 10.5 1.7 2.9 17.1 6.8 21.8 13.9 2.7 4.2 5.5 8.4 8.2 12.6 2.2 3.4 4.5 11.6 1.3 14.8-2.9 2.8-7.1 4.8-10.4 7.3 1.8-1.5-1.6-7.5-2.8-8.5-4.7-4-13.7-1.3-20 6.2-6.4 7.4-7.7 16.7-3 20.7 1.7 1.5 3.7 1.6 5.8 2-4.4 12.7-15.5 1.7-22.2-2.5l-10.5-6.6c-2.9-1.8-6.6-17.1-9.6-18.8-3.9-2.3-8.9 2.5-11.3 5.2-3.7 4.1-7.7 10.3-7.9 16-.6 3.9.1 7.1 2.1 8.3 2.9 1.7 16.9-3.9 21.4-1.6 4 2 7.8 4.1 8.4 4.4 4.9 2.4 11.4 4.2 15 8.7 5.6 6.8-.9 14.8-3.1 21.8.3-1-2.1-4.4-2.8-5.2-1.4-1.7-3.3-3-5.5-3.3-6.1-.7-12 6.6-13.1 16.3-1.1 9.7 2.9 18.1 9.1 18.8 2.7.3 5.3-.9 7.5-3.1-.4 4.1.6 8.2-3.1 10.7-2.6 1.8-6.1 2-9.2 2.1-3.6.1-7.2-.3-10.8-.8-1.8-.2-6.6 0-8-.9 0 0-17.6-11.8-21-11.8-4.3 0-6.2 6.1-7 9.4-1.3 5.5-1.8 13.3.9 18.5 1.4 3.7 3.6 6.1 6 6.1 3.4 0 20.8-11.7 20.8-11.7 1.7-1.1 7.8-.7 10-.9 3.9-.3 8-.5 11.8.5 11 2.9 10.4 13.2 12.9 22.4 0 0-10.3-8-14.7-6.3-5.8 2.2-7.6 11.4-4 20.5 3.5 9.1 11 14.7 16.8 12.4 4.4-1.7 5.5-15.3 5.4-15.8 3.3 8.8 9.7 16.7.8 24.1-3.2 2.6-7 4.4-10.7 6.1-2.1.9-6.6 4-8.7 3.9 0 0-22.5-.6-25.4 1-2.1 1.2-2.8 4.4-2.1 8.4 1.2 7.1 5.3 14.2 10.9 18.8 3.1 2.5 6.1 3.5 8.2 2.3 2.9-1.7 13.7-21.5 13.7-21.5 3.8-2.4 7.5-4.8 11.3-7.2 5.7-3.7 9.8-3.6 16.6-3.8 5.1-.2 9 7.8 12.2 11.2 0 0-15.1-1.4-18.4 2.3-4.1 4.7-1.4 13.6 6 20.1 7.4 6.4 16.6 7.8 20.7 3.2 3.2-3.6-.1-17.6-.1-17.6.8 3.5 9.6 7.2 12.2 9.7 7.2 6.9 2.3 11.9-2 18.1-3.3 4.7-6.5 9.5-9.8 14.2 0 0-19.7 9.7-21.4 12.6-1.2 2.1-.2 5.2 2.4 8.4 4.6 5.6 11.7 9.7 18.8 10.8 3.9.6 7.1-.1 8.3-2.1 1.7-2.9 1.4-24.6 1.4-24.6 4.1-7.2 8.9-21.5 17.7-23.9 2.4-.7 5.6-.8 8.1-.4 1.8.3 6.6 3.5 8.2 2.9 0 0-14.2 4.6-15.6 9.3-1.7 5.9 4.5 13 13.9 15.7 9.4 2.7 18.4.1 20.1-5.8 1.3-4.6-7.6-16-7.6-16 6.6 1.7 13.9 2.2 19.4 6.7 6 4.9 3.6 11.8 3.2 18.6 0 .8-.6 13.3-.8 13.3 0 0-11.8 15.9-11.8 19.3 0 2.4 2.4 4.6 6.2 6.1 6.7 2.6 15 2.6 21.7 0 3.7-1.4 6.1-3.6 6.1-6 0-3.4-11.5-19.4-11.5-19.4-.1 0-.4-11.1-.4-11.8-.2-6.5-1-10.5 2-16.4.7-1.3 1.4-2.6 2.3-3.7 5-6.3 13.1-1.2 18.9-5.3-5.9 4.2-8.9 10-6.9 14.6 2.5 5.7 11.7 7.1 20.7 3.2 9-3.9 14.2-11.6 11.8-17.3-1.3-3-4.5-4.8-8.5-5.3 5.8-2.1 12.3-5.9 16 2.2 2.9 6.3 7.6 12.9 11 19.3 0 0-.8 22 .9 24.9 2.7 4.7 9.8 2.3 13.7.7 5.1-2.1 10-5.1 13.5-9.5 2.5-3.1 3.5-6.1 2.3-8.2-1.7-2.9-21-12.8-21.1-12.8-2.2-1.1-5.2-7.3-6.7-9.5-2.3-3.5-4.8-7.4-5.3-11.7-1.4-10.1 9.9-14.1 16.3-20l4.2 5s0 18 3.3 21.6c4.2 4.5 13.4 2.8 20.6-3.9 7.1-6.7 9.5-15.7 5.3-20.2-3.3-3.5-21.4-4.7-21.4-4.7l-5-4.7c5.7-6.2 8.9-16.3 18.7-13.7 4 1.1 7.5 3.5 10.8 5.9 2 1.4 7.3 4.2 8.4 6.2 0 0 10.4 19.8 13.3 21.5 4.7 2.7 9.7-2.9 12.2-6.2 3.4-4.4 6.1-9.5 7-15 .6-3.9-.1-7.1-2.1-8.3-2.9-1.7-25.7-1.4-25.7-1.4-6-3.2-12.7-5.2-18.3-9.1-2.4-1.6-5.9-4-5.9-7.2 0-2.8 3.3-7.3 4.5-9.9.8 2.8 2.2 5.6 5 6.8 5.6 2.5 13.4-2.8 17.3-11.8 3.9-9 2.5-18.2-3.2-20.7-4.2-1.8-9.5.6-13.6 5.6 1.4-7.6-.6-17.9 8.4-21 4.3-1.5 15.1-1.8 19.1.2.1 0 24.3 12.1 27.7 12.1 5.4 0 6.9-7.2 7.5-11.3.9-5.4.7-11.3-1.3-16.5zm-52.2-24.9c.4-.4 1.1-.9 2-.9.7 0 1.4.3 2.2.8 2.2 1.6 4.5 5.6 4.8 11v.2c.2 5.4-1.7 9.8-3.7 11.6-.7.6-1.3 1-2 1h-.3c-.8 0-1.4-.4-1.8-.7-2.2-1.7-3.9-6.2-4.2-11.4-.3-5 .9-9.7 3-11.6zm19.1-64.4h.2c.2 0 .6.1 1 .3 1.6 1 4.5 4 7.1 8.5l.1.1c2.6 4.5 3.8 8.6 3.8 10.5 0 .6-.1 1-.3 1.2-.1.1-.2.1-.3.1-.3 0-.6-.2-.8-.3-1.7-1-4.5-4.6-7-8.9-2.5-4.3-4.1-8.5-4.2-10.5 0-.4 0-.9.4-1zm-47.1 2.1c.1-.1.2-.1.4-.1s.5.1.9.2c1.8.7 5.3 3.3 8.7 7.5l.1.1c3.4 4.2 5.4 8.2 5.7 10.1.1.6.1 1-.1 1.2-.1.1-.2.1-.4.1s-.5-.1-.7-.2c-1.9-.8-5.4-3.9-8.7-7.9-3.3-4-5.7-8-6.1-10-.1-.3-.2-.8.2-1zm-21.9-62.9c.2-.2.6-.3 1.1-.3 1.9 0 5.9 1.2 10.4 3.8l.1.1c4.5 2.6 7.6 5.6 8.5 7.2.3.5.4.9.3 1.2-.1.2-.4.3-.9.3h-.1c-2 0-6.2-1.7-10.5-4.2s-7.8-5.3-8.9-7c0-.4-.2-.8 0-1.1zm-159.5.1c-1 1.7-4.6 4.5-8.9 7-4.3 2.5-8.5 4.1-10.5 4.2h-.1c-.5 0-.8-.1-.9-.4-.1-.2-.1-.5.3-1.2 1-1.6 4-4.5 8.5-7.1l.1-.1c4.5-2.6 8.6-3.8 10.5-3.8.6 0 1 .1 1.1.3.3.4.1.8-.1 1.1zm-72.8 72.9c-2.5 4.3-5.3 7.8-7 8.9-.2.1-.5.3-.8.3-.1 0-.2 0-.3-.1-.1-.1-.3-.4-.3-1.2 0-1.9 1.2-5.8 3.8-10.4l.1-.1c2.6-4.5 5.6-7.6 7.2-8.5.4-.2.7-.3 1-.3h.2c.2.1.4.4.3 1 0 1.9-1.7 6.1-4.2 10.4zm26.9 56.7c-.6 5.1-2.8 9.5-5.4 11-.4.3-1.1.6-1.9.6-.2 0-.4 0-.6-.1-.8-.1-1.5-.5-2.2-1.2-2.1-2-4-6.4-3.4-11.7v-.2c.7-5.4 3.6-9.3 6.1-10.7.8-.4 1.5-.7 2.3-.7h.2c1.1.1 1.8.6 2.2 1 2.3 2.1 3.3 6.9 2.7 12zm-51.4 42.2c-.2.3-.4.7-.7.7h-.1c-.2 0-.5-.2-.9-.9-.9-1.7-1.9-5.7-1.9-10.9v-.2c0-5.2 1-9.4 1.9-11 .3-.5.6-.8.8-.8h.1c.4 0 .6.5.7.7 1 1.7 1.6 6.2 1.6 11.2.1 5-.5 9.5-1.5 11.2zm52.2 36.5c-.3.5-.9 1.2-1.9 1.6-.4.1-.7.2-1.2.2-.4 0-.9-.1-1.4-.2-2.8-.7-6.5-3.7-8.5-8.8l-.1-.1c-1.9-5.1-1.1-9.9.4-12.3.5-.8 1.1-1.4 1.8-1.7.4-.2.9-.3 1.3-.3.5 0 .8.1 1.1.2 2.9.8 6.1 4.6 7.9 9.3 2 4.6 2.2 9.5.6 12.1zm-25.1 51.7h-.2c-.2 0-.6-.1-1-.3-1.6-1-4.5-4-7.1-8.5l-.1-.1c-2.6-4.5-3.8-8.6-3.8-10.5 0-.6.1-1 .3-1.2.1-.1.2-.1.3-.1.3 0 .6.2.8.3 1.7 1 4.5 4.6 7 8.9 2.5 4.3 4.1 8.5 4.2 10.5-.1.4-.1.9-.4 1zm70.4 60.9c-.2.2-.6.3-1.1.3-1.9 0-5.9-1.2-10.4-3.8l-.1-.1c-4.5-2.6-7.6-5.6-8.5-7.2-.3-.5-.4-.9-.3-1.2.1-.2.4-.3.9-.3h.1c2 0 6.2 1.7 10.5 4.2s7.8 5.3 8.9 7c0 .4.3.8 0 1.1zm2.2-229.7l.1-.1c4.7-4.2 11.2-4.6 15.3-3.1 1.3.5 2.4 1.1 3.2 1.9l.3.3c1.3 1.3 1.8 2.7 2.1 3.6 1.2 4.4-.9 10.1-5.3 14.1-4.4 4.1-10.3 5.8-14.6 4.2-.7-.3-1.7-.7-2.7-1.5-.3-.2-.5-.5-.8-.8-.9-1-1.5-2.3-1.9-3.7-1.2-4.3-.4-10.6 4.3-14.9zM526.3 447h-.3c-.6 0-1.5-.2-2.3-.9-.6-.5-1-1.3-1.2-2.3-.7-2.8.2-7.5 3.7-11.6l.1-.1c3.3-3.8 7.7-5.5 10.5-5.5h.5c1 .1 1.8.3 2.4.8.9.7 1.1 1.5 1.3 2.1.7 2.9-1.1 7.5-4.5 11.4-3.2 3.7-7.2 6.1-10.2 6.1zm16.3 184.7c0 .6-.2 1.5-1 2.3-.5.6-1.3 1-2.3 1.2-.6.1-1.2.2-1.8.2-3.2 0-6.9-1.5-9.8-4l-.1-.1c-4-3.6-5.6-8.3-5.4-11.1.1-1 .4-1.8.8-2.4.7-.9 1.5-1.1 2.1-1.3.4-.1.8-.1 1.2-.1 2.9 0 6.8 1.8 10.1 4.7 4 3.3 6.4 7.6 6.2 10.6zm16.5-47.2c-.3.9-.9 2.2-2.3 3.4-1 .9-2.2 1.5-3.7 1.9-4.6 1.3-10 0-13.8-3.3-.3-.3-.7-.6-1-.9l-.1-.1c-4.3-4.7-4.7-11.1-3.4-15.2.5-1.4 1.2-2.6 2.1-3.5 1.3-1.3 2.6-1.8 3.5-2 3.9-1.1 8.8.4 12.8 4 .5.4.9.8 1.3 1.3 4.3 4.3 6.1 10.1 4.6 14.4zm16.3-67c-.4 4.5-2.9 8.3-6.1 9.6-.5.2-1.3.5-2.3.5-.3 0-.5 0-.8-.1-1-.1-2-.5-2.9-1.1-2.8-1.8-5.4-5.7-4.9-10.4v-.1c.5-4.7 4-8.1 7-9.3.9-.4 1.9-.6 2.7-.6h.3c1.4.1 2.3.6 2.9 1 2.9 1.8 4.6 6 4.1 10.5zm43.3-167c-.3-.2-.7-.5-.7-.8 0-.2.2-.5.9-.9 1.6-.9 5.6-1.9 10.8-1.9h.2c5.2 0 9.4 1 11 1.9.5.3.8.6.8.8.1.3-.4.6-.7.8-1.7 1-6.2 1.6-11.1 1.6h-.1c-4.9.1-9.4-.5-11.1-1.5zm-7.2 232.3c1.6-2.5 5.1-4.1 9.1-4.1.5 0 .9 0 1.4.1 4.5.4 8.3 2.8 9.7 5.9.3.6.6 1.7.4 3-.1 1-.5 2-1.1 2.9-1.9 3-5.6 5-9.3 5h-1.1c-4.7-.5-8.2-3.9-9.4-6.8-.4-1-.6-2-.6-3 0-1.5.5-2.4.9-3zm-21.1-184.6c-2.6 0-4.7-.5-6-1.4-.5-.3-1.1-.9-1.3-1.9-.1-.7 0-1.5.3-2.3 1.1-2.5 4.5-5.7 9.8-7.1h.2c1.6-.4 3.2-.6 4.8-.6 2.9 0 5.7.7 7.3 1.9.7.5 1.2 1.2 1.5 1.8.3.9 0 1.7-.2 2.3-1.2 2.6-5.3 5.2-10.2 6.5-2.1.5-4.3.8-6.2.8zm13.1 263.4c.2.6.5 1.5.1 2.5-.3.7-.8 1.4-1.6 2-1.7 1.3-4.3 2.1-7.2 2.1-1.6 0-3.3-.2-4.9-.7h-.2c-5.2-1.6-8.6-5.1-9.6-7.8-.3-.9-.4-1.8-.3-2.5.2-1.1.9-1.7 1.4-2 1.3-1 3.5-1.6 6-1.6 2 0 4.1.3 6.2.9 5 1.4 9 4.3 10.1 7.1zm8.3-21.4l-.2-.1c-2.4-.7-4.6-1.9-6.5-3.6-2.3-2-3.9-4.5-4.5-7-.4-1.4-.4-2.6-.2-3.8.4-1.7 1.2-2.7 1.8-3.3 3-3.1 8.9-4.1 14.7-2.5 3.1.8 5.9 2.3 8 4.1 1.8 1.6 3.1 3.5 3.6 5.3.2.8.5 2.2 0 3.8-.4 1.2-1 2.3-2 3.3-3 3.1-8.6 5.4-14.7 3.8zm29.1 66.8c.3.2.7.5.7.8 0 .2-.2.5-.9.9-1.6.9-5.6 1.9-10.8 1.9h-.2c-5.2 0-9.4-1-11-1.9-.5-.3-.8-.6-.8-.8-.1-.3.4-.6.7-.8 1.7-1 6.2-1.6 11.1-1.6h.1c4.9-.1 9.4.5 11.1 1.5zM636 484c-1.6 2.7-5.3 4.5-9.5 4.5h-.9c-4.5-.3-8.4-2.5-9.9-5.7-.3-.6-.7-1.7-.5-3.1.1-1 .4-2 1-3 1.5-2.7 5.1-5.4 9.5-5.4h.7c4.7.3 8.3 3.7 9.6 6.6.5 1 .7 2.1.7 3 .1 1.5-.4 2.5-.7 3.1zm26-93c.1-.2.5-.4 1.2-.5.3 0 .6-.1 1-.1 2.6 0 6.5.9 10.2 2.4l.1.1c5 2 8.6 4.6 9.9 6.1.4.5.6.9.5 1.1-.1.4-.6.5-1 .5h-.7c-2.3 0-6.4-1.1-10.7-2.8-4.8-1.9-8.8-4.3-10.2-5.9-.2-.1-.5-.6-.3-.9zm15.3 260.6c.5.3 1.3.8 1.7 1.9.3.7.3 1.6.1 2.6-.6 2.8-3.5 6.7-8.4 8.8l-.1.1c-2.2.9-4.5 1.4-6.7 1.4s-4.2-.5-5.6-1.3c-.8-.5-1.5-1.1-1.8-1.8-.5-1-.4-1.9-.2-2.5.7-2.9 4.3-6.3 9-8.3 2.7-1.2 5.5-1.8 8-1.8 1.5 0 2.9.3 4 .9zm-1.8-63.3l-.1.1c-1.7.8-3.5 1.2-5.4 1.2-2.3 0-4.4-.6-6-1.7-.9-.6-1.5-1.3-2-2.1-.6-1.1-.7-2.1-.6-2.8.2-3.2 2.9-6.7 6.9-8.7 2.1-1.1 4.4-1.6 6.5-1.6 1.8 0 3.4.4 4.6 1.2.5.4 1.3 1 1.9 2.2.4.8.5 1.8.5 2.8-.1 3.2-2.1 7.3-6.3 9.4zm7.1-62v.1c-.3 4.7-3.5 8.1-6.6 9.4-1 .4-2 .6-2.9.6h-.2c-1.4 0-2.4-.5-3-.9-2.9-1.8-4.7-6-4.4-10.5.3-4.5 2.6-8.4 5.7-9.7.5-.2 1.3-.5 2.4-.5h.7c1 .1 2 .5 2.9 1.1 2.8 1.7 5.6 5.6 5.4 10.4zm4.9-63.6c-.5 1.4-1.1 2.7-2 3.6-1.3 1.4-2.6 1.9-3.5 2.2-4 1.3-9.3-.3-13.5-3.9-.3-.3-.6-.5-.9-.8-4.2-4.2-6.2-10-4.8-14.4.3-.9.8-2.2 2.2-3.5 1-.9 2.2-1.6 3.6-2.1 3.9-1.3 9.9-.9 14.3 3.1l.6.6.1.1c4.6 4.5 5.2 11 3.9 15.1zm20 226c1-1.7 4.6-4.5 8.9-7 4.3-2.5 8.5-4.1 10.5-4.2h.1c.5 0 .8.1.9.4.1.2.1.5-.3 1.2-1 1.6-4 4.5-8.5 7.1l-.1.1c-4.5 2.6-8.6 3.8-10.5 3.8-.6 0-1-.1-1.1-.3-.2-.3-.1-.6.1-1.1zm25.2-57.8c3.3-3.1 7.2-5 10.2-5 .4 0 .7 0 1 .1.6.1 1.5.3 2.2 1.2.5.6.8 1.4.9 2.4.4 2.9-1 7.4-5 11.1l-.1.1c-2.9 2.7-6.8 4.4-10.1 4.4-.5 0-1 0-1.5-.1-1-.2-1.7-.5-2.3-1.1-.8-.7-1-1.6-1-2.2-.4-3.1 1.9-7.4 5.7-10.9zm-.8-74.5l-.1.2c-2.1 6-7.4 9.2-11.8 9.8-1.4.2-2.7.1-3.9-.2-.1 0-.2 0-.2-.1-1.8-.6-2.9-1.5-3.5-2.2-3.1-3.4-3.9-9.4-1.9-15.1 2-5.7 6.3-9.9 10.8-10.5.7-.1 1.8-.2 3.2.2l.9.3c1.2.5 2.4 1.3 3.4 2.4 2.9 3.1 5.1 9.2 3.1 15.2zm50.2 61.7c2.5-4.3 5.3-7.8 7-8.9.2-.1.5-.3.8-.3.1 0 .2 0 .3.1.1.1.3.4.3 1.2 0 1.9-1.2 5.8-3.8 10.4l-.1.1c-2.6 4.5-5.6 7.6-7.2 8.5-.4.2-.7.3-1 .3h-.2c-.2-.1-.4-.4-.3-1 .1-1.9 1.8-6.1 4.2-10.4zm-28.9-53.9c2.1-4.7 5.4-8.3 8.3-9 .3-.1.6-.1 1-.1.5 0 1 .1 1.5.4.7.4 1.3 1 1.8 1.8 1.5 2.5 2 7.2-.2 12.2l-.1.1c-2.2 4.9-6.2 7.9-8.9 8.5-.4.1-.8.1-1.2.1-.5 0-.9-.1-1.3-.2-1-.4-1.5-1.1-1.8-1.6-1.6-2.6-1.2-7.5.9-12.2zm58-34.9c0 5.2-1 9.4-1.9 11-.3.5-.6.8-.8.8h-.1c-.4 0-.6-.5-.7-.7-1-1.7-1.6-6.2-1.6-11.2 0-4.9.7-9.4 1.6-11.2.2-.3.4-.7.7-.7h.1c.2 0 .5.2.9.9.9 1.7 1.9 5.7 1.9 10.9l-.1.2zm84.4-48.5c-.4-.1-.7-.4-.9-.7s-.2-.6-.3-1.1c0-.4-.1-.9-.1-1.4 0-.5-.2-1.1-.4-1.7-1.4-3.2-3.3-5.7-5.7-7.6s-5.4-2.7-9.2-2.7c-3 0-5.7.8-8.1 2.5s-4.5 4.1-6.2 7.1c-1.7 3.1-3 6.8-4 11.1-.9 4.3-1.4 9.2-1.4 14.4 0 5.1.5 9.9 1.5 14.2 1 4.3 2.4 8.1 4.2 11.2 1.8 3.2 4 5.7 6.5 7.4 2.5 1.8 5.3 2.7 8.3 2.7 3.6 0 6.8-1.1 9.5-3.3 2.7-2.2 5.2-5.3 7.4-9.1l12.7 8.3c-3.5 6.1-7.8 10.6-12.8 13.7s-10.5 4.6-16.4 4.6c-5.5 0-10.6-1-15.3-3-4.7-2-8.8-5-12.2-9-3.4-4.1-6.1-9.1-8.1-15.3-1.9-6.1-2.9-13.3-2.9-21.6 0-6.1.5-11.6 1.6-16.4 1-4.9 2.5-9.1 4.3-12.8s4-6.8 6.4-9.4c2.4-2.6 5-4.7 7.8-6.3 2.8-1.6 5.6-2.8 8.5-3.6 2.9-.8 5.8-1.1 8.6-1.1 3.5 0 6.9.5 10.1 1.5s6.2 2.5 8.9 4.4c2.7 1.9 5.1 4.1 7.2 6.7 2.1 2.6 3.9 5.5 5.2 8.7l-14.7 7.6zm54.7 69.8c-5.5 0-10.4-1.2-14.8-3.7-4.3-2.5-8-5.9-11-10.3s-5.3-9.7-6.9-15.7-2.4-12.7-2.4-19.9c0-7.2.8-13.8 2.5-19.8 1.6-6 4-11.2 7-15.5 3.1-4.3 6.7-7.6 11.1-10 4.3-2.4 9.2-3.6 14.6-3.6 4.7 0 9.1 1 13.3 3 4.2 2 7.9 5 11 9.1 3.1 4.1 5.7 9.2 7.5 15.3 1.9 6.2 2.8 13.4 2.8 21.7 0 6-.5 11.4-1.4 16.2-.9 4.8-2.2 9-3.8 12.7s-3.5 6.8-5.7 9.4c-2.2 2.6-4.6 4.7-7.2 6.4-2.6 1.7-5.3 2.9-8.1 3.7-2.8.6-5.7 1-8.5 1zM932.5 500c0 5.7.4 10.8 1.3 15.2s2.1 8.1 3.7 11.1 3.5 5.2 5.6 6.7c2.2 1.5 4.6 2.3 7.2 2.3 2.2 0 4.4-.6 6.5-1.7 2.1-1.1 3.9-3 5.5-5.7s2.8-6.2 3.8-10.7c1-4.4 1.4-9.9 1.4-16.4 0-6.2-.5-11.5-1.5-15.8-1-4.3-2.3-7.8-4-10.4-1.6-2.7-3.4-4.6-5.5-5.7-2-1.2-4-1.8-6-1.8-2.4 0-4.7.5-6.8 1.6-2.2 1.1-4.1 2.9-5.8 5.4-1.7 2.5-3 5.9-4 10.1-.9 4.2-1.4 9.5-1.4 15.8zm56.6-45.6h17.7l19.6 66.3 18.6-66.3h17.3l-30 93.5h-12.9l-30.3-93.5zm85.4 0h52.1v14h-18.1v65.7h18.9v13.8h-53.8V534h18.1v-65.6h-17.2v-14zm69.7 0h24.2c4.1 0 7.8.3 11 .9 3.2.6 6 1.4 8.4 2.5 2.4 1.1 4.6 2.5 6.5 4.1s3.6 3.5 5.2 5.6c3.2 4.3 5.6 9.3 7.2 15.1 1.6 5.7 2.4 12.2 2.4 19.3 0 7.1-.8 13.5-2.4 19.2-1.6 5.7-4.1 10.5-7.5 14.5-3.4 4-7.8 7-13.2 9.2-5.4 2.1-11.8 3.2-19.3 3.2h-22.3v-93.6zm16.3 14v66.3h5.7c8.8 0 15.4-2.8 19.6-8.4 4.2-5.6 6.3-13.6 6.3-24.1 0-5.3-.5-10-1.4-14.2-.9-4.2-2.3-7.7-4.3-10.7-2-2.9-4.5-5.2-7.6-6.7s-6.8-2.3-11.1-2.3h-7.2zm99.9-14v93.5H1244v-74.4l-16 4.8-4-10.3 25.3-13.6h11.1zm59.2 96.3c-4.3 0-8.4-1-12.4-2.9s-7.7-4.7-11.1-8.2l11.2-12.2c.5.1.9.4 1.2.7.3.3.5.7.7 1.1.2.4.3.9.5 1.4.2.5.4 1.1.8 1.6 1 1.1 2.3 2.1 4 2.8 1.7.7 3.4 1.1 5.2 1.1 1.8 0 3.7-.4 5.6-1.3 1.9-.9 3.7-2.3 5.3-4.3 1.7-2 3.1-4.6 4.4-7.9 1.3-3.3 2.2-7.3 2.7-12.2-1 1-2.1 1.9-3.3 2.7-1.2.9-2.5 1.6-3.8 2.2-1.3.6-2.7 1.1-4.1 1.5-1.4.4-2.8.5-4.2.5-3.9 0-7.6-.8-11-2.3-3.4-1.6-6.4-3.8-9-6.6-2.6-2.8-4.6-6.2-6-10.1-1.5-3.9-2.2-8.2-2.2-12.9s.8-9.1 2.3-13.1c1.5-4.1 3.6-7.6 6.3-10.5 2.6-3 5.7-5.3 9.3-7 3.5-1.7 7.3-2.6 11.4-2.6 4.9 0 9.3 1.1 13.2 3.4 3.9 2.3 7.1 5.5 9.8 9.5 2.7 4.1 4.7 8.9 6.1 14.5 1.4 5.6 2.1 11.8 2.1 18.4 0 8.2-.8 15.5-2.5 21.9-1.7 6.5-4.1 12-7.1 16.5s-6.7 8-11 10.4-9.3 3.9-14.4 3.9zm3.4-48c2.7 0 5.4-.8 7.9-2.5 2.6-1.7 4.7-3.8 6.3-6.5V491c0-3-.4-5.9-1.1-8.7-.7-2.8-1.7-5.3-3-7.4-1.3-2.1-2.8-3.8-4.5-5.1-1.8-1.3-3.7-1.9-5.9-1.9-1.7 0-3.3.4-4.8 1.2-1.5.8-2.8 1.9-3.9 3.4s-2 3.3-2.6 5.6c-.7 2.2-1 4.7-1 7.6 0 3 .4 5.5 1.1 7.7.8 2.1 1.7 3.9 2.9 5.3s2.5 2.4 4 3.1c1.7.6 3.1.9 4.6.9zm-481.3 69.9h29.2v6.9h-21.4v11.1h17.7v7.1h-17.7v12.9h21.2v6.9h-29.1v-44.9zm65.6 44.8h-8.9l-15.2-33.9v33.9H876v-44.9h9.8l14.3 32.1v-32.1h7.8c.1.1.1.2.1.4s-.1.4-.3.7-.3.8-.4 1.5v42.3zm42.4-44.8h29.2v6.9h-21.4v11.1h17.7v7.1h-17.7v12.9h21.2v6.9h-29.1v-44.9zm59.3 11.6c-.4 0-.6-.1-.8-.2s-.3-.3-.4-.5-.1-.4-.2-.6-.1-.4-.3-.7c-.8-1.2-1.9-2.2-3.3-3s-3.1-1.2-5.1-1.2c-.8 0-1.6.1-2.3.4s-1.3.6-1.8 1.1-.8 1-1.1 1.6-.4 1.2-.4 1.9c0 .8.1 1.5.4 2.2s.8 1.4 1.5 2 1.7 1.3 2.9 2 2.8 1.4 4.7 2.2c2.3.9 4.2 1.9 5.7 2.9s2.7 2.1 3.6 3.2 1.5 2.3 1.9 3.6.5 2.6.5 4c0 1.7-.3 3.4-.9 5s-1.5 3.1-2.8 4.4-2.9 2.3-4.9 3.1-4.5 1.2-7.3 1.2c-3 0-5.8-.6-8.3-1.7s-4.8-2.8-6.9-5l4.1-7.2c.3.1.5.2.7.3s.3.3.4.5.2.4.4.6.3.5.5.8c.5.6 1.1 1.2 1.7 1.8s1.4 1.1 2.2 1.5 1.7.8 2.7 1.1 2.1.4 3.3.4c2.2 0 3.9-.5 5.2-1.5s1.9-2.6 1.9-4.8c0-.7-.1-1.3-.4-2s-.8-1.2-1.4-1.8-1.6-1.2-2.7-1.8-2.5-1.3-4.3-2c-2.2-.9-4.2-1.9-5.8-2.9s-2.9-2.1-3.9-3.2-1.8-2.4-2.2-3.7-.7-2.7-.7-4.1c0-1.8.4-3.4 1.1-4.9s1.7-2.9 3-4 2.8-2.1 4.6-2.7 3.8-1 5.9-1c2.7 0 5.3.6 7.7 1.7s4.4 2.8 6.1 5l-4.5 6zm12.2-11.6h15.2c2.7 0 5 .4 6.9 1.1s3.5 1.7 4.7 2.9 2.1 2.7 2.7 4.3.9 3.4.9 5.2-.3 3.5-.8 5.2-1.4 3-2.6 4.2-2.7 2.1-4.6 2.8-4.1 1.1-6.7 1.1h-7.3v18.1h-8.2v-44.9zm8.2 7.1v12.7h6.8c1.2 0 2.3-.2 3.2-.5s1.6-.8 2.2-1.3 1-1.2 1.3-2 .4-1.6.4-2.5c0-.9-.1-1.8-.4-2.6s-.7-1.5-1.3-2.1-1.3-1-2.2-1.4-1.9-.5-3.1-.5h-6.9zm24.2 37.7l15-45.6h4.7l16.4 45.6h-8.4l-4.1-11.6h-11.7l-3.5 11.6h-8.4zm22.1-17.2l-4.7-14.9-4.4 14.9h9.1zm47.6 17.2h-8.9l-15.2-33.9v33.9h-7.2v-44.9h9.8l14.3 32.1v-32.1h7.8c.1.1.1.2.1.4s-.1.4-.3.7-.3.8-.4 1.5v42.3zm-27.5-51.5c2.9-4.8 6-7.2 9.1-7.2 1 0 1.9.2 2.8.7s1.6 1.1 2.3 1.7l.6.6.7.7c.3.3.5.4.8.5s.5.2.8.2c.4 0 .7-.1 1-.4s.7-.5 1-.9.6-.8.9-1.3.6-1 1-1.5l3.9 4.5c-.8 1-1.5 1.9-2.1 2.6s-1.3 1.4-1.8 1.9-1.2.9-1.7 1.2-1.2.4-1.8.4c-.9 0-1.7-.2-2.5-.6s-1.5-.9-2.2-1.4c-.2-.2-.5-.4-.7-.7s-.6-.6-.9-.9-.7-.6-1-.8-.7-.3-1.1-.3c-.7 0-1.4.4-1.9 1.2s-1.2 2-2 3.5l-5.2-3.7zm47.9 52.8c-2.6 0-5-.6-7.1-1.8s-3.8-2.8-5.3-5-2.5-4.6-3.3-7.6-1.1-6.1-1.1-9.5c0-3.5.4-6.6 1.2-9.5s1.9-5.4 3.4-7.4 3.2-3.7 5.3-4.8 4.4-1.7 7-1.7c2.2 0 4.4.5 6.4 1.4s3.8 2.4 5.3 4.4 2.7 4.4 3.6 7.3 1.3 6.4 1.3 10.4c0 2.9-.2 5.5-.7 7.8s-1.1 4.3-1.8 6.1-1.7 3.3-2.7 4.5-2.2 2.3-3.4 3.1-2.5 1.4-3.9 1.8-2.8.5-4.2.5zm-8.5-24.2c0 2.7.2 5.2.6 7.3s1 3.9 1.8 5.3 1.7 2.5 2.7 3.2 2.2 1.1 3.5 1.1c1.1 0 2.1-.3 3.1-.8s1.9-1.5 2.6-2.7 1.4-3 1.8-5.1.7-4.8.7-7.9c0-3-.2-5.5-.7-7.6s-1.1-3.7-1.9-5-1.6-2.2-2.6-2.8-1.9-.8-2.9-.8c-1.1 0-2.2.3-3.3.8s-2 1.4-2.8 2.6-1.4 2.8-1.9 4.9-.7 4.4-.7 7.5zm59.5 16.1v6.8H1166v-44.9h8.8c.1.1.1.2.1.4s-.1.4-.3.7-.3.8-.4 1.5v35.5h20.5z"/>
</svg>