<svg xmlns="http://www.w3.org/2000/svg" viewBox="0 0 512 512">
  <path fill="#ffba48" d="M174.834 475.143l-15.91 15.91a7.5 7.5 0 0 1-10.607-10.607l15.91-15.91a7.5 7.5 0 0 1 10.607 10.607zM206.038 443.939l-9.991 9.991a7.5 7.5 0 0 1-10.607-10.607l9.991-9.991a7.5 7.5 0 0 1 10.607 10.607zM17.197 466.053l-9.991-9.991a7.5 7.5 0 0 1 10.607-10.607l9.991 9.991a7.5 7.5 0 0 1-10.607 10.607z"/>
  <path fill="#ff9a42" d="M474.5 48.75l-227 82.5v254.5h25.365a7.499 7.499 0 0 0 6.708-4.146L307.5 325.75l7.5-20 7.5 20H345a7.5 7.5 0 0 0 7.5-7.5v-22.5l40.652-40.652a7.5 7.5 0 0 0 .937-9.464L367.5 205.75l32-52c12.427 0 22.5-10.074 22.5-22.5l79.027-50.29a7.5 7.5 0 0 0 3.473-6.327V56.25a7.5 7.5 0 0 0-7.5-7.5z"/>
  <g fill="#ffba48">
    <path d="M367.5 250.75l-30-45 32-52c12.427 0 22.5-10.074 22.5-22.5l82.5-52.5v-30h-45c-8.284 0-15 6.716-15 15l-90-15c0-16.569-13.431-30-30-30H93.477c-5.188-8.964-14.874-15-25.977-15-16.569 0-30 13.431-30 30H30c-12.426 0-22.5 10.074-22.5 22.5v30a7.5 7.5 0 0 0 7.5 7.5h60c0 12.426 10.074 22.5 22.5 22.5l-15 112H54.501c-5.641 0-9.399 6.068-6.64 10.988 3.852 6.869 11.203 11.512 19.639 11.512v15c0 8.284 6.716 15 15 15v49.023c-9.067 5.247-15.138 15.097-14.998 26.36.206 16.517 14.074 29.617 30.592 29.617H127.5l30 30c16.569 0 30-13.431 30-30h60l30-60h45v-30zM427.5 230.75l22.5 22.5c12.426 0 22.5-10.074 22.5-22.5v-22.5z"/>
    <circle cx="442.5" cy="318.241" r="7.5"/>
    <circle cx="7.5" cy="500.75" r="7.5"/>
    <circle cx="48.621" cy="485.75" r="7.5"/>
    <path d="M442.794 288.553l-9.991 9.991a7.5 7.5 0 0 1-10.607-10.607l9.991-9.991a7.5 7.5 0 0 1 10.607 10.607zM499.196 198.553l-10.607-10.607a7.5 7.5 0 0 1 10.607-10.607l10.607 10.607a7.5 7.5 0 0 1-10.607 10.607zM123.307 463.25H86.121a7.5 7.5 0 0 0-7.5 7.5v14.576c0 8.077 6.207 15.027 14.275 15.407 8.614.406 15.725-6.458 15.725-14.983v-7.5h15a7.5 7.5 0 0 0 7.497-7.731c-.124-4.105-3.705-7.269-7.811-7.269z"/>
  </g>
</svg>