<svg xmlns="http://www.w3.org/2000/svg" viewBox="0 0 512 512" class="fill-current">
  <circle cx="442.5" cy="321.991" r="7.5"/>
  <circle cx="7.5" cy="504.5" r="7.5"/>
  <circle cx="48.621" cy="489.5" r="7.5"/>
  <path d="M442.793 281.697a7.498 7.498 0 0 0-10.606 0l-9.99 9.991a7.498 7.498 0 0 0 .001 10.606c1.464 1.465 3.384 2.197 5.303 2.197s3.839-.732 5.304-2.197l9.99-9.991a7.5 7.5 0 0 0-.002-10.606zM509.804 191.697l-10.606-10.606a7.5 7.5 0 0 0-10.607 10.606l10.606 10.606c1.465 1.464 3.385 2.197 5.304 2.197s3.839-.732 5.304-2.197a7.502 7.502 0 0 0-.001-10.606zM476.443 205.62a7.502 7.502 0 0 0-7.298-.328l-45 22.5a7.502 7.502 0 0 0-1.949 12.011l22.5 22.5A7.5 7.5 0 0 0 450 264.5c16.542 0 30-13.458 30-30V212a7.501 7.501 0 0 0-3.557-6.38zM465 234.5c0 7.301-5.243 13.401-12.162 14.731l-12.677-12.676L465 224.135zM17.812 449.206c-2.928-2.93-7.677-2.929-10.606 0s-2.929 7.678.001 10.606l9.991 9.991C18.661 471.268 20.581 472 22.5 472s3.839-.732 5.304-2.197a7.498 7.498 0 0 0-.001-10.606zM123.621 467h-45a7.5 7.5 0 0 0-7.5 7.5v15c0 12.407 10.094 22.5 22.5 22.5s22.5-10.093 22.5-22.5V482h7.5c4.143 0 7.5-3.358 7.5-7.5s-3.357-7.5-7.5-7.5zm-22.5 22.5c0 4.136-3.364 7.5-7.5 7.5s-7.5-3.364-7.5-7.5V482h15zM164.228 468.287l-15.909 15.91a7.498 7.498 0 0 0-.001 10.606 7.476 7.476 0 0 0 5.304 2.197 7.478 7.478 0 0 0 5.304-2.197l15.909-15.91c2.93-2.929 2.93-7.677.001-10.606s-7.678-2.929-10.608 0zM195.431 437.083l-9.99 9.991a7.498 7.498 0 0 0 .001 10.606c1.464 1.465 3.384 2.197 5.303 2.197s3.839-.732 5.304-2.197l9.99-9.991a7.498 7.498 0 0 0-.001-10.606 7.5 7.5 0 0 0-10.607 0z"/>
  <path d="M376.406 209.338l27.481-44.658c13.062-1.922 23.412-12.294 25.303-25.366l79.336-50.486A7.502 7.502 0 0 0 512 82.5v-30a7.5 7.5 0 0 0-7.5-7.5h-75c-9.374 0-17.427 5.761-20.804 13.929l-77.251-12.875C328.381 28.437 312.98 15 294.5 15c-4.143 0-7.5 3.358-7.5 7.5s3.357 7.5 7.5 7.5c12.406 0 22.5 10.093 22.5 22.5a7.5 7.5 0 0 0 6.267 7.398l90 15A7.498 7.498 0 0 0 422 67.5c0-4.136 3.364-7.5 7.5-7.5H497v18.383l-79.026 50.29a7.502 7.502 0 0 0-3.474 6.328c0 8.271-6.729 15-15 15a7.503 7.503 0 0 0-6.388 3.569l-32 52a7.5 7.5 0 0 0 .147 8.091l26.589 39.884-40.652 40.652A7.5 7.5 0 0 0 345 299.5V322h-37.5a7.499 7.499 0 0 0-6.708 4.146L272.865 382H187.5a7.5 7.5 0 0 0-7.5 7.5c0 11.417-8.549 20.876-19.582 22.312l-27.614-27.615A7.5 7.5 0 0 0 127.5 382H98.095c-12.58 0-22.939-9.963-23.094-22.21-.101-8.122 4.212-15.699 11.256-19.775A7.502 7.502 0 0 0 90 333.524V284.5a7.5 7.5 0 0 0-7.5-7.5c-4.136 0-7.5-3.364-7.5-7.5v-15a7.5 7.5 0 0 0-7.5-7.5c-5.541 0-10.39-3.02-12.987-7.5H82.5a7.5 7.5 0 0 0 7.434-6.504l15-112A7.502 7.502 0 0 0 97.5 112.5c-8.271 0-15-6.729-15-15A7.5 7.5 0 0 0 75 90H15V60c0-8.271 6.729-15 15-15h7.5a7.5 7.5 0 0 0 7.5-7.5C45 25.093 55.094 15 67.5 15c8.001 0 15.467 4.313 19.485 11.256A7.501 7.501 0 0 0 93.477 30H264.5c4.143 0 7.5-3.358 7.5-7.5s-3.357-7.5-7.5-7.5H97.489C90.458 5.652 79.331 0 67.5 0 49.391 0 34.238 12.905 30.753 30H30C13.458 30 0 43.458 0 60v37.5a7.5 7.5 0 0 0 7.5 7.5h60.949c2.64 10.221 10.547 18.348 20.64 21.3l-13.151 98.2H45a7.5 7.5 0 0 0-7.5 7.5c0 13.953 9.575 25.712 22.5 29.051v8.449c0 9.778 6.27 18.12 15 21.215v38.793c-9.492 7.132-15.147 18.442-14.997 30.47C60.259 380.392 77.347 397 98.095 397h26.299l27.803 27.803a7.5 7.5 0 0 0 5.304 2.197c18.109 0 33.262-12.905 36.747-30H277.5a7.499 7.499 0 0 0 6.708-4.146L312.135 337H352.5a7.5 7.5 0 0 0 7.5-7.5v-26.894l42.804-42.803a7.5 7.5 0 0 0 .937-9.463z"/>
</svg>